<svg id="Layer_1" data-name="Layer 1" xmlns="http://www.w3.org/2000/svg" viewBox="0 0 269.1 466.19">
	<title>screw</title>
	<g id="Screw">
		<path
			id="Screw-2"
			data-name="Screw"
			d="M441.48,240.59c-1.06,3.84-4.53,5.16-7.43,6.95-31.3,19.29-62.55,38.67-94,57.67-6,3.63-7,5.61-1,10.39,4.66,3.72,13,6.57,10.6,14.4-2.18,7.05-10.33,6.08-16.11,6.45-10,.64-9.27,9.19-12.09,14.84-2.68,5.34-3.61,11.4,1.8,16.24,3.39,3,7.05,5.8,10.29,9,5.24,5.19,3.9,12.1-3.13,12.38-14.48.57-20.26,8.15-22.59,21.3-.89,5.05-1.38,8.7,2.87,12.07,3.35,2.66,6.38,5.73,9.74,8.38,5.1,4,4.6,9.69-1.29,12.34a26.06,26.06,0,0,1-3.09.86c-5.31,1.58-12.85-.21-15.59,4.78-3.5,6.38-3.72,11.31-5.51,18.59-.54,1.48-.85,4.95,4.1,9a131.4,131.4,0,0,1,10.57,10.08c4.45,4.56,3.08,9.54-2.8,12.07a3.43,3.43,0,0,1-1.54.44C284.59,497,283.93,514.79,277.77,527c-1.92,3.82,1.16,6,3.76,7.88,3.69,2.69,8.06,4.91,6.66,10.65-1.33,5.46-6.1,6.22-10.54,7.36-2.86.73-5.72,2-8.59,2-9.13.12-10.38,8-13.82,13.6-1.64,2.67,1.35,3.59,2.76,5,5.65,5.56,4.58,12.27-2.92,12.58-12.43.5-17.24,8.57-22.52,17.47-4.64,7.82-10.12,15.15-15.21,22.71-2.32,3.44-4.95,6.93-9.57,6s-4.93-5.34-5.26-9c-1.81-20.27-6.69-40.25-6-60.74.24-7.1-4.62-9.7-9.65-12.35s-12.58-3.79-12.11-11.07,8-6.7,13.22-8.12c4-1.1,6.17-2.91,5.33-7.33a11.75,11.75,0,0,1-.1-4c1.93-12.27-3.3-20.37-14.26-25.56-3.6-1.7-7.33-4.27-6.39-9.17.85-4.43,5-5.12,8.6-6.21.52-.15,1.05-.26,1.56-.4,15-4.27,20.34-11.51,20.21-26.81,0-5.37-4.57-6.8-7.53-9.68-3.81-3.71-11.66-4.59-10.43-11.82,1.28-7.54,9.22-6,14.29-8.32,4-1.86,10.08-.95,11.85-5.71a97.18,97.18,0,0,0,5-21.07c.46-3.5-4.13-4.44-6.47-6.51-4.22-3.74-12-5.23-11.14-12.37.92-8,10-8.55,15.45-10.32,9.16-3,17.85-8,15.34-25.67-.29-2-2.08-3.07-3.63-4.12-2.89-2-5.84-3.82-8.71-5.78-3.18-2.17-6.23-4.58-5.58-9,.63-4.18,4.24-5.15,7.57-6.28a23.77,23.77,0,0,0,2.31-.67c12.32-5.45,15.46-4.63,19.77-21.22,1.52-4.78-.79-8.26-3.06-11.94q-28.08-45.6-56.13-91.21a76.82,76.82,0,0,1-4.08-6.94c-3.2-6.65-1.78-10.06,5.46-11.82a179.74,179.74,0,0,1,48.63-4.66c23.79.75,47.72-.54,71,6.06,4,1.14,7.65,2.33,9.59,6.47,1.54,3.3,4,4.49,6.92,1.6,3.44-3.37,7.23-2.47,11.28-1.66,17,3.4,32.05,12,48,18.15,20.69,8,39.19,19.71,56.81,32.95C439,232.55,441.89,235.66,441.48,240.59ZM205.42,185.23c2.77,4.83,5.57,9.05,7.74,13.57,13.81,28.7,30.13,56.07,44.71,84.35a17.11,17.11,0,0,0,12.73,9.69c9.29,2,9.18,2.24,7.71-6.78-.56-3.42-.85-6.9-1.22-10.36-2.83-26.57-5.76-45.26-10.86-77C264.89,198.23,231.39,188.38,205.42,185.23ZM301.2,490.8c-7.62-5.83-11.69-15.82-24.14-14.87-18.83,1.45-16.69-1.45-12.71-18.19.81-3.36,1.65-6.81,2.38-10.19a5.2,5.2,0,0,0-.59-3.73c-2-2.72-23.85-2.07-25.51.75-.13.22-.9,3.78-1,4l-4.46,18.73c-2.77,11.66-3.59,11.77-16,11.18-11.35-.54-21.88,2.27-33,6.9C225,489.47,263.08,487.64,301.2,490.8ZM212,375.3c3.87,2.29,6.82,2.31,9.76,2.41,21.41.7,42.83,1.37,64.24,2.15,10.78.4,21.55,1,32.33,1.49,1.86.09,4.11.4,5.05-1.58,1.29-2.73-1.8-3.37-2.91-5-6.06-8.84-14.92-8.81-24.29-8.35-8.37.42-9.78-1.35-7.65-10.82.82-3.65,3.14-12.14,4.2-17.12.56-2.59,0-3.44-1.44-3.86-24.44-5.82-23.34-4.85-28.86,18.32l-1.3,5.45c-1.67,7-6,10.89-14.06,11.19C235.66,370,224.11,370.63,212,375.3Zm102.8,61.57c-9.27-10.65-17.79-19.11-32.17-16.05-2.78.59-8.12,1.88-8.6-2.21-.54-4.51,8.62-30.94,5.3-30.4-8.28-.12-16.3-1.42-24.5.43-1.39.31-1.74,3.55-2.07,4.94l-5.55,23.31c-1.08,4.53-3.47,6.11-7.7,6.35-2.39.14-29.54,3.17-39.22,7.72,17.78,3.45,36.16,1.63,39.84,1.82C264.64,434,289.2,433.93,314.81,436.87ZM277.49,543.5c-1.21-2.27-1.6-3.19-2.15-4-5.75-8.4-14.35-8-23.07-7.66-2.8.11-5.91,1.49-4.5-4.45,1.69-7.06,3.13-14,5-21,2.09-7.76.47-8.86-7.88-8.64-3.48.1-7,.5-10.43.36-4.52-.18-6.74,1.71-7.78,6.11l-5,20.94c-1.41,5.93-1.6,9.33-8.5,8.76s-14,1-22.26,4.59C220.53,542.8,248.52,541.14,277.49,543.5Zm-51.4-220.86c37.91.33,75.77,3.89,115.15,4.88-9.63-10.29-18.25-18-31.84-15.27-3.82.77-7.58,0-8.87-4.77-.54-2.06-2.3-2.74-4.3-3.06-5.29-.84-10.59-1.69-15.84-2.73-2.3-.46-5.43-1.34-5.82.31l-1.87,7.85c-1.39,5.83-5.21,4.45-10.45,4.8C249.93,315.48,237.72,317.13,226.09,322.64ZM249.19,579c-2.84-4.24-6.47-4.51-10.25-4.61-8.53-.22-8.91-.81-6-8.75.56-1.5,1.21-3,1.79-4.47,1.41-3.65,4.29-8.4-1.77-9.68-4.91-1-11.51-3.38-14.24,4.51-2,5.91-1.72,12.16-2.87,18.19-.43,2.24,1,2.63,2.76,2.92A127.48,127.48,0,0,0,249.19,579Zm-37.95,39.64,2.08,0c4.06-9.84,8.19-19.66,12.14-29.55,1-2.49,1.81-5.61-2.32-6.12-2.33-.29-6.29-3-7,.58C214,595.17,212.81,606.94,211.24,618.63Z"
			transform="translate(-172.42 -166.24)"/>
	</g>
</svg>
